<?xml version="1.0" encoding="UTF-8" standalone="no"?>
<!-- Created with Inkscape (http://www.inkscape.org/) -->

<svg
   xmlns:dc="http://purl.org/dc/elements/1.1/"
   xmlns:cc="http://creativecommons.org/ns#"
   xmlns:rdf="http://www.w3.org/1999/02/22-rdf-syntax-ns#"
   xmlns:svg="http://www.w3.org/2000/svg"
   xmlns="http://www.w3.org/2000/svg"
   xmlns:sodipodi="http://sodipodi.sourceforge.net/DTD/sodipodi-0.dtd"
   xmlns:inkscape="http://www.inkscape.org/namespaces/inkscape"
   width="20cm"
   height="5cm"
   viewBox="0 0 200 50"
   version="1.1"
   id="svg8"
   sodipodi:docname="Github_banner.svg"
   inkscape:version="0.92.0 r15299">
  <defs
     id="defs2">
    <clipPath
       clipPathUnits="userSpaceOnUse"
       id="clipPath4700">
      <rect
         y="5e-007"
         x="-297"
         height="92.742516"
         width="45.703068"
         id="rect4702"
         style="opacity:1;fill:#ffffff;fill-opacity:1;stroke:none;stroke-width:2.64583302;stroke-linecap:round;stroke-linejoin:round;stroke-miterlimit:4;stroke-dasharray:none;stroke-opacity:1;paint-order:stroke fill markers"
         transform="rotate(-90)" />
    </clipPath>
    <clipPath
       clipPathUnits="userSpaceOnUse"
       id="clipPath4704">
      <rect
         style="opacity:1;fill:#ffffff;fill-opacity:1;stroke:none;stroke-width:2.64583302;stroke-linecap:round;stroke-linejoin:round;stroke-miterlimit:4;stroke-dasharray:none;stroke-opacity:1;paint-order:stroke fill markers"
         id="rect4706"
         width="97.580109"
         height="49.999989"
         x="5.0000165e-007"
         y="247.00002" />
    </clipPath>
    <clipPath
       clipPathUnits="userSpaceOnUse"
       id="clipPath4708">
      <rect
         transform="rotate(-90)"
         style="opacity:1;fill:#ffffff;fill-opacity:1;stroke:none;stroke-width:2.64583302;stroke-linecap:round;stroke-linejoin:round;stroke-miterlimit:4;stroke-dasharray:none;stroke-opacity:1;paint-order:stroke fill markers"
         id="rect4710"
         width="50"
         height="130.04877"
         x="-297"
         y="5.0000165e-007" />
    </clipPath>
  </defs>
  <sodipodi:namedview
     id="base"
     pagecolor="#ffffff"
     bordercolor="#666666"
     borderopacity="1.0"
     inkscape:pageopacity="0.0"
     inkscape:pageshadow="2"
     inkscape:zoom="1.4142136"
     inkscape:cx="266.71734"
     inkscape:cy="139.38399"
     inkscape:document-units="mm"
     inkscape:current-layer="text5489"
     showgrid="false"
     units="cm"
     inkscape:window-width="2560"
     inkscape:window-height="1377"
     inkscape:window-x="-8"
     inkscape:window-y="-8"
     inkscape:window-maximized="1"
     showguides="true"
     inkscape:guide-bbox="true">
    <sodipodi:guide
       position="200,50.000005"
       orientation="0,1"
       id="guide4676"
       inkscape:locked="false" />
    <sodipodi:guide
       position="4.9999998e-007,50.000005"
       orientation="1,0"
       id="guide4678"
       inkscape:locked="false" />
    <sodipodi:guide
       position="200,50.000005"
       orientation="1,0"
       id="guide4680"
       inkscape:locked="false" />
    <sodipodi:guide
       position="200,2.038147e-005"
       orientation="0,1"
       id="guide4682"
       inkscape:locked="false" />
  </sodipodi:namedview>
  <metadata
     id="metadata5">
    <rdf:RDF>
      <cc:Work
         rdf:about="">
        <dc:format>image/svg+xml</dc:format>
        <dc:type
           rdf:resource="http://purl.org/dc/dcmitype/StillImage" />
        <dc:title />
      </cc:Work>
    </rdf:RDF>
  </metadata>
  <g
     inkscape:label="Layer 1"
     inkscape:groupmode="layer"
     id="layer1"
     transform="translate(0,-247.00002)">
    <rect
       style="opacity:1;fill:#222222;fill-opacity:1;stroke:#202529;stroke-width:0;stroke-linecap:round;stroke-linejoin:round;stroke-miterlimit:4;stroke-dasharray:none;stroke-opacity:1;paint-order:stroke fill markers"
       id="rect4514"
       width="200"
       height="50"
       x="5e-007"
       y="247.00002"
       ry="0"
       sodipodi:insensitive="true" />
    <g
       id="g4603"
       transform="matrix(0.40529246,0,0,0.40529246,133.04737,118.95418)"
       style="stroke-width:2.46735406">
      <g
         id="text5440-9"
         style="font-style:normal;font-variant:normal;font-weight:normal;font-stretch:normal;font-size:16.85047531px;line-height:10.53154659px;font-family:'Bebas Neue';-inkscape-font-specification:'Bebas Neue';letter-spacing:0px;word-spacing:0px;fill:#f00080;fill-opacity:1;stroke:none;stroke-width:1.03940237"
         transform="rotate(-90,108.38477,130.58617)"
         aria-label="Code">
        <path
           inkscape:connector-curvature="0"
           id="path5712"
           style="fill:#f00080;fill-opacity:1;stroke-width:1.03940237"
           d="m -124.65755,62.527975 v 1.685048 c 0,0.842523 -0.37071,1.145832 -0.96048,1.145832 -0.58976,0 -0.96047,-0.303309 -0.96047,-1.145832 v -6.36948 c 0,-0.842524 0.37071,-1.162683 0.96047,-1.162683 0.58977,0 0.96048,0.320159 0.96048,1.162683 v 1.263786 h 1.75245 v -1.145833 c 0,-1.887253 -0.94363,-2.965683 -2.76348,-2.965683 -1.81985,0 -2.76348,1.07843 -2.76348,2.965683 v 6.133573 c 0,1.887253 0.94363,2.965684 2.76348,2.965684 1.81985,0 2.76348,-1.078431 2.76348,-2.965684 v -1.567094 z" />
        <path
           inkscape:connector-curvature="0"
           id="path5714"
           style="fill:#f00080;fill-opacity:1;stroke-width:1.03940237"
           d="m -120.06211,57.843543 c 0,-0.842524 0.37071,-1.162683 0.96048,-1.162683 0.58976,0 0.96047,0.320159 0.96047,1.162683 v 6.36948 c 0,0.842523 -0.37071,1.162682 -0.96047,1.162682 -0.58977,0 -0.96048,-0.320159 -0.96048,-1.162682 z m -1.85355,6.251526 c 0,1.887253 0.99418,2.965684 2.81403,2.965684 1.81985,0 2.81403,-1.078431 2.81403,-2.965684 v -6.133573 c 0,-1.887253 -0.99418,-2.965683 -2.81403,-2.965683 -1.81985,0 -2.81403,1.07843 -2.81403,2.965683 z" />
        <path
           inkscape:connector-curvature="0"
           id="path5716"
           style="fill:#f00080;fill-opacity:1;stroke-width:1.03940237"
           d="m -115.08306,66.925949 h 2.93198 c 1.85356,0 2.76348,-1.027879 2.76348,-2.915132 v -5.965068 c 0,-1.887254 -0.90992,-2.915133 -2.76348,-2.915133 h -2.93198 z m 2.89828,-10.110285 c 0.58977,0 0.94363,0.303308 0.94363,1.145832 v 6.133573 c 0,0.842524 -0.35386,1.145833 -0.94363,1.145833 h -1.04473 v -8.425238 z" />
        <path
           inkscape:connector-curvature="0"
           id="path5718"
           style="fill:#f00080;fill-opacity:1;stroke-width:1.03940237"
           d="m -106.35109,56.815664 h 3.20159 v -1.685048 h -5.05514 v 11.795333 h 5.05514 v -1.685047 h -3.20159 v -3.454348 h 2.54442 v -1.685047 h -2.54442 z" />
      </g>
      <g
         id="text5446-4"
         style="font-style:normal;font-variant:normal;font-weight:normal;font-stretch:normal;font-size:35.36649704px;line-height:22.10406113px;font-family:'Bebas Neue';-inkscape-font-specification:'Bebas Neue';letter-spacing:0px;word-spacing:0px;fill:#f00080;fill-opacity:1;stroke:none;stroke-width:2.18154168"
         aria-label="Soapbox"
         transform="translate(-22.201408,238.97094)">
        <path
           inkscape:connector-curvature="0"
           id="path5697"
           style="fill:#f00080;fill-opacity:1;stroke-width:2.18154168"
           d="m 69.205402,109.37213 c 0,2.82932 1.025629,4.88057 4.279346,7.74526 2.546388,2.22809 3.324451,3.57202 3.324451,5.37571 0,1.76832 -0.778063,2.40492 -2.01589,2.40492 -1.237828,0 -2.01589,-0.6366 -2.01589,-2.40492 v -1.76833 h -3.678116 v 1.52076 c 0,3.96105 1.980524,6.22451 5.800105,6.22451 3.819582,0 5.800106,-2.26346 5.800106,-6.22451 0,-2.82932 -1.025629,-4.88057 -4.279346,-7.74526 -2.546388,-2.22809 -3.324451,-3.57202 -3.324451,-5.37571 0,-1.76832 0.70733,-2.44029 1.945157,-2.44029 1.237828,0 1.945158,0.67197 1.945158,2.44029 v 1.02563 h 3.678115 v -0.77806 c 0,-3.96105 -1.945157,-6.22451 -5.729372,-6.22451 -3.784215,0 -5.729373,2.26346 -5.729373,6.22451 z" />
        <path
           inkscape:connector-curvature="0"
           id="path5699"
           style="fill:#f00080;fill-opacity:1;stroke-width:2.18154168"
           d="m 86.465911,109.12456 c 0,-1.76832 0.778063,-2.44029 2.01589,-2.44029 1.237828,0 2.01589,0.67197 2.01589,2.44029 v 13.36854 c 0,1.76832 -0.778062,2.44029 -2.01589,2.44029 -1.237827,0 -2.01589,-0.67197 -2.01589,-2.44029 z m -3.890315,13.12097 c 0,3.96105 2.086623,6.22451 5.906205,6.22451 3.819582,0 5.906205,-2.26346 5.906205,-6.22451 v -12.8734 c 0,-3.96105 -2.086623,-6.22451 -5.906205,-6.22451 -3.819582,0 -5.906205,2.26346 -5.906205,6.22451 z" />
        <path
           inkscape:connector-curvature="0"
           id="path5701"
           style="fill:#f00080;fill-opacity:1;stroke-width:2.18154168"
           d="m 105.47651,103.43056 h -5.694008 l -3.961048,24.75654 h 3.572016 l 0.67196,-4.49154 h 4.77448 l 0.67196,4.49154 h 3.92569 z m -3.07689,4.38544 h 0.0707 l 1.83905,12.51974 h -3.74885 z" />
        <path
           inkscape:connector-curvature="0"
           id="path5703"
           style="fill:#f00080;fill-opacity:1;stroke-width:2.18154168"
           d="m 116.9441,103.43056 h -5.72938 v 24.75654 h 3.89032 v -9.30139 h 1.83906 c 3.89031,0 5.8001,-2.15735 5.8001,-6.1184 v -3.21835 c 0,-3.96105 -1.90979,-6.1184 -5.8001,-6.1184 z m 0,3.53665 c 1.23782,0 1.90979,0.56586 1.90979,2.33418 v 3.71349 c 0,1.76832 -0.67197,2.33418 -1.90979,2.33418 h -1.83906 v -8.38185 z" />
        <path
           inkscape:connector-curvature="0"
           id="path5705"
           style="fill:#f00080;fill-opacity:1;stroke-width:2.18154168"
           d="m 130.41707,103.43056 h -5.87084 v 24.75654 h 6.11841 c 3.89031,0 5.9062,-2.05125 5.9062,-5.87084 v -2.01589 c 0,-2.61712 -0.81343,-4.45617 -2.90005,-5.2696 v -0.0707 c 1.73296,-0.81343 2.51102,-2.40492 2.51102,-4.95131 v -0.88416 c 0,-3.81958 -1.73296,-5.694 -5.76474,-5.694 z m -0.24756,13.6161 c 1.76832,0 2.51102,0.70733 2.51102,3.00615 v 2.15736 c 0,1.83905 -0.70733,2.44028 -2.01589,2.44028 h -2.22809 v -7.60379 z m 0.14146,-10.07945 c 1.3793,0 1.98053,0.77806 1.98053,2.54638 v 1.3793 c 0,1.98052 -0.88417,2.61712 -2.33419,2.61712 h -1.52076 v -6.5428 z" />
        <path
           inkscape:connector-curvature="0"
           id="path5707"
           style="fill:#f00080;fill-opacity:1;stroke-width:2.18154168"
           d="m 142.48589,109.12456 c 0,-1.76832 0.77806,-2.44029 2.01589,-2.44029 1.23783,0 2.01589,0.67197 2.01589,2.44029 v 13.36854 c 0,1.76832 -0.77806,2.44029 -2.01589,2.44029 -1.23783,0 -2.01589,-0.67197 -2.01589,-2.44029 z m -3.89031,13.12097 c 0,3.96105 2.08662,6.22451 5.9062,6.22451 3.81958,0 5.90621,-2.26346 5.90621,-6.22451 v -12.8734 c 0,-3.96105 -2.08663,-6.22451 -5.90621,-6.22451 -3.81958,0 -5.9062,2.26346 -5.9062,6.22451 z" />
        <path
           inkscape:connector-curvature="0"
           id="path5709"
           style="fill:#f00080;fill-opacity:1;stroke-width:2.18154168"
           d="m 161.75565,103.43056 -2.97078,9.12455 h -0.0707 l -2.90005,-9.12455 h -4.03178 l 4.06715,12.0246 -4.35008,12.73194 h 3.64275 l 3.18298,-9.79652 h 0.0707 l 3.14761,9.79652 h 4.10252 l -4.35008,-12.73194 4.06715,-12.0246 z" />
      </g>
      <path
         style="color:#000000;font-style:normal;font-variant:normal;font-weight:normal;font-stretch:normal;font-size:medium;line-height:normal;font-family:sans-serif;font-variant-ligatures:normal;font-variant-position:normal;font-variant-caps:normal;font-variant-numeric:normal;font-variant-alternates:normal;font-feature-settings:normal;text-indent:0;text-align:start;text-decoration:none;text-decoration-line:none;text-decoration-style:solid;text-decoration-color:#000000;letter-spacing:normal;word-spacing:normal;text-transform:none;writing-mode:lr-tb;direction:ltr;text-orientation:mixed;dominant-baseline:auto;baseline-shift:baseline;text-anchor:start;white-space:normal;shape-padding:0;clip-rule:nonzero;display:inline;overflow:visible;visibility:visible;opacity:1;isolation:auto;mix-blend-mode:normal;color-interpolation:sRGB;color-interpolation-filters:linearRGB;solid-color:#000000;solid-opacity:1;vector-effect:none;fill:#f00080;fill-opacity:1;fill-rule:nonzero;stroke:none;stroke-width:12.2802124;stroke-linecap:butt;stroke-linejoin:miter;stroke-miterlimit:4;stroke-dasharray:none;stroke-dashoffset:0;stroke-opacity:1;color-rendering:auto;image-rendering:auto;shape-rendering:auto;text-rendering:auto;enable-background:accumulate"
         d="m 23.091797,331.12305 v 2.48828 44.53515 H 152.02344 v -47.02343 z m 4.976562,4.97656 H 147.04688 v 37.07031 H 28.068359 Z"
         id="rect5448-7"
         inkscape:connector-curvature="0" />
      <path
         style="color:#000000;font-style:normal;font-variant:normal;font-weight:normal;font-stretch:normal;font-size:medium;line-height:normal;font-family:sans-serif;font-variant-ligatures:normal;font-variant-position:normal;font-variant-caps:normal;font-variant-numeric:normal;font-variant-alternates:normal;font-feature-settings:normal;text-indent:0;text-align:start;text-decoration:none;text-decoration-line:none;text-decoration-style:solid;text-decoration-color:#000000;letter-spacing:normal;word-spacing:normal;text-transform:none;writing-mode:lr-tb;direction:ltr;text-orientation:mixed;dominant-baseline:auto;baseline-shift:baseline;text-anchor:start;white-space:normal;shape-padding:0;clip-rule:nonzero;display:inline;overflow:visible;visibility:visible;opacity:1;isolation:auto;mix-blend-mode:normal;color-interpolation:sRGB;color-interpolation-filters:linearRGB;solid-color:#000000;solid-opacity:1;vector-effect:none;fill:#f00080;fill-opacity:1;fill-rule:nonzero;stroke:none;stroke-width:12.28021145;stroke-linecap:butt;stroke-linejoin:miter;stroke-miterlimit:4;stroke-dasharray:none;stroke-dashoffset:0;stroke-opacity:1;color-rendering:auto;image-rendering:auto;shape-rendering:auto;text-rendering:auto;enable-background:accumulate"
         d="m 22.256735,334.01245 0.09413,2.48649 1.684599,44.49938 128.823286,-5.74156 -1.77873,-46.98587 z m 5.159962,4.75336 118.880033,-5.2984 1.40213,37.03793 -118.88003,5.2984 z"
         id="rect5450-9"
         inkscape:connector-curvature="0" />
      <g
         id="text5489"
         style="font-style:normal;font-variant:normal;font-weight:normal;font-stretch:normal;font-size:11.31346703px;line-height:7.07091713px;font-family:'Bebas Neue';-inkscape-font-specification:'Bebas Neue';letter-spacing:0px;word-spacing:0px;fill:#f00080;fill-opacity:1;stroke:none;stroke-width:0.69785821"
         aria-label="By Daniel Frąk"
         transform="translate(-22.201408,238.97094)">
        <path
           inkscape:connector-curvature="0"
           id="path5672"
           style="fill:#f00080;fill-opacity:1;stroke-width:0.69785821"
           d="m 117.40599,143.64724 h -1.87803 v 7.91943 h 1.95723 c 1.24448,0 1.88934,-0.65619 1.88934,-1.87804 v -0.64487 c 0,-0.83719 -0.26021,-1.42549 -0.9277,-1.6857 v -0.0226 c 0.55436,-0.26021 0.80326,-0.76932 0.80326,-1.58389 v -0.28283 c 0,-1.22186 -0.55436,-1.82147 -1.8441,-1.82147 z m -0.0792,4.35568 c 0.56567,0 0.80325,0.22627 0.80325,0.96165 v 0.69012 c 0,0.5883 -0.22627,0.78063 -0.64486,0.78063 h -0.71275 v -2.4324 z m 0.0452,-3.22433 c 0.44123,0 0.63355,0.24889 0.63355,0.81457 v 0.44122 c 0,0.63355 -0.28283,0.8372 -0.74668,0.8372 h -0.48648 v -2.09299 z" />
        <path
           inkscape:connector-curvature="0"
           id="path5674"
           style="fill:#f00080;fill-opacity:1;stroke-width:0.69785821"
           d="m 121.11257,151.56667 h 1.24448 v -2.62473 l 1.57257,-5.2947 h -1.18792 l -0.93901,3.60899 h -0.0226 l -0.93902,-3.60899 h -1.30105 l 1.57258,5.2947 z" />
        <path
           inkscape:connector-curvature="0"
           id="path5676"
           style="fill:#f00080;fill-opacity:1;stroke-width:0.69785821"
           d="m 126.17852,151.56667 h 1.96855 c 1.24448,0 1.85541,-0.69013 1.85541,-1.95723 v -4.00497 c 0,-1.26711 -0.61093,-1.95723 -1.85541,-1.95723 h -1.96855 z m 1.94592,-6.78808 c 0.39597,0 0.63355,0.20364 0.63355,0.76931 v 4.1181 c 0,0.56568 -0.23758,0.76932 -0.63355,0.76932 H 127.423 v -5.65673 z" />
        <path
           inkscape:connector-curvature="0"
           id="path5678"
           style="fill:#f00080;fill-opacity:1;stroke-width:0.69785821"
           d="m 133.53511,143.64724 h -1.82147 l -1.26711,7.91943 h 1.14266 l 0.21495,-1.43681 h 1.52732 l 0.21496,1.43681 h 1.25579 z m -0.98428,1.40287 h 0.0226 l 0.5883,4.00497 h -1.19923 z" />
        <path
           inkscape:connector-curvature="0"
           id="path5680"
           style="fill:#f00080;fill-opacity:1;stroke-width:0.69785821"
           d="m 138.02938,151.56667 h 1.27842 v -7.91943 h -1.10872 v 4.74034 h -0.0226 l -1.2558,-4.74034 h -1.56126 v 7.91943 h 1.12004 v -5.73593 h 0.0226 z" />
        <path
           inkscape:connector-curvature="0"
           id="path5682"
           style="fill:#f00080;fill-opacity:1;stroke-width:0.69785821"
           d="m 140.20987,151.56667 h 1.24449 v -7.91943 h -1.24449 z" />
        <path
           inkscape:connector-curvature="0"
           id="path5684"
           style="fill:#f00080;fill-opacity:1;stroke-width:0.69785821"
           d="m 143.59773,144.77859 h 2.14956 v -1.13135 h -3.39404 v 7.91943 h 3.39404 v -1.13135 h -2.14956 v -2.31926 h 1.70833 v -1.13135 h -1.70833 z" />
        <path
           inkscape:connector-curvature="0"
           id="path5686"
           style="fill:#f00080;fill-opacity:1;stroke-width:0.69785821"
           d="m 146.50741,151.56667 h 3.29222 v -1.13135 h -2.04774 v -6.78808 h -1.24448 z" />
        <path
           inkscape:connector-curvature="0"
           id="path5688"
           style="fill:#f00080;fill-opacity:1;stroke-width:0.69785821"
           d="m 153.34233,144.77859 h 2.04774 v -1.13135 h -3.29222 v 7.91943 h 1.24448 v -3.2696 h 1.60652 v -1.13134 h -1.60652 z" />
        <path
           inkscape:connector-curvature="0"
           id="path5690"
           style="fill:#f00080;fill-opacity:1;stroke-width:0.69785821"
           d="m 159.85606,151.56667 c -0.12445,-0.29415 -0.13576,-0.57699 -0.13576,-0.96165 v -1.22185 c 0,-0.82589 -0.20364,-1.41419 -0.82588,-1.6744 v -0.0226 c 0.55436,-0.26021 0.81457,-0.78063 0.81457,-1.5952 v -0.62224 c 0,-1.22186 -0.55436,-1.82147 -1.8441,-1.82147 h -1.87803 v 7.91943 h 1.24448 v -3.22434 h 0.42991 c 0.56567,0 0.81457,0.27152 0.81457,1.0069 v 1.24448 c 0,0.64487 0.0453,0.76931 0.11313,0.97296 z m -2.02511,-6.78808 c 0.44123,0 0.63355,0.24889 0.63355,0.81457 v 0.78062 c 0,0.63356 -0.28283,0.8372 -0.74668,0.8372 h -0.48648 v -2.43239 z" />
        <path
           inkscape:connector-curvature="0"
           id="path5692"
           style="fill:#f00080;fill-opacity:1;stroke-width:0.69785821"
           d="m 163.29924,143.64724 h -1.82146 l -1.26711,7.91943 h 1.14266 l 0.21495,-1.43681 h 1.52732 l 0.2489,1.57257 c -0.36203,0.23758 -0.53173,0.52042 -0.53173,0.82588 0,0.46385 0.38465,0.70144 0.98427,0.70144 0.31677,0 0.5091,-0.0226 0.76931,-0.12445 v -0.63356 c -0.12445,0.0339 -0.18101,0.0679 -0.40728,0.0679 -0.20364,0 -0.39597,-0.10182 -0.39597,-0.31677 0,-0.15839 0.0566,-0.4186 0.3394,-0.65618 h 0.46385 z m -0.98427,1.40287 h 0.0226 l 0.5883,4.00497 h -1.19923 z" />
        <path
           inkscape:connector-curvature="0"
           id="path5694"
           style="fill:#f00080;fill-opacity:1;stroke-width:0.69785821"
           d="m 167.97454,151.56667 h 1.27842 l -1.73096,-4.38963 1.73096,-3.5298 h -1.24448 l -1.60651,3.42798 h -0.0226 v -3.42798 h -1.24448 v 7.91943 h 1.24448 v -2.4324 l 0.38466,-0.72406 z" />
      </g>
    </g>
    <g
       id="text5446-4-2"
       style="font-style:normal;font-variant:normal;font-weight:normal;font-stretch:normal;font-size:35.36649704px;line-height:22.10406113px;font-family:'Bebas Neue';-inkscape-font-specification:'Bebas Neue';letter-spacing:0px;word-spacing:0px;fill:#cccccc;fill-opacity:1;stroke:none;stroke-width:3.63482475"
       aria-label="Soapbox"
       transform="matrix(0.2432476,0,0,0.2432476,138.35732,263.7237)">
      <g
         aria-label="My opinions on software engineering"
         style="font-style:normal;font-variant:normal;font-weight:normal;font-stretch:normal;font-size:23.15605354px;line-height:14.47253227px;font-family:'Bebas Neue';-inkscape-font-specification:'Bebas Neue';letter-spacing:0px;word-spacing:0px;fill:#cccccc;fill-opacity:1;stroke:none;stroke-width:3.63482475"
         id="text5446-4-5">
        <path
           d="m -46.663497,99.847472 h -3.542876 v 16.209238 h 2.222981 v -11.46225 h 0.04631 l 1.852485,11.46225 h 2.408229 l 1.713548,-11.62434 h 0.04631 v 11.62434 h 2.40823 V 99.847472 h -3.542876 L -44.7647,111.35603 h -0.04631 z"
           style="fill:#cccccc;fill-opacity:1;stroke-width:3.63482475"
           id="path4564"
           inkscape:connector-curvature="0" />
        <path
           d="m -35.270356,116.05671 h 2.547166 v -5.37221 l 3.218691,-10.837028 h -2.431385 l -1.921953,7.386778 h -0.04631 l -1.921952,-7.386778 h -2.662947 l 3.218692,10.837028 z"
           style="fill:#cccccc;fill-opacity:1;stroke-width:3.63482475"
           id="path4566"
           inkscape:connector-curvature="0" />
        <path
           d="m -22.562748,103.5756 c 0,-1.15781 0.509434,-1.59777 1.319895,-1.59777 0.810462,0 1.319895,0.43996 1.319895,1.59777 v 8.75298 c 0,1.15781 -0.509433,1.59777 -1.319895,1.59777 -0.810461,0 -1.319895,-0.43996 -1.319895,-1.59777 z m -2.547165,8.59089 c 0,2.59348 1.366207,4.07547 3.86706,4.07547 2.500854,0 3.867061,-1.48199 3.867061,-4.07547 v -8.4288 c 0,-2.59348 -1.366207,-4.075467 -3.867061,-4.075467 -2.500853,0 -3.86706,1.481987 -3.86706,4.075467 z"
           style="fill:#cccccc;fill-opacity:1;stroke-width:3.63482475"
           id="path4568"
           inkscape:connector-curvature="0" />
        <path
           d="m -11.969217,99.847472 h -3.751281 v 16.209238 h 2.547166 v -6.09004 h 1.204115 c 2.5471657,0 3.7975926,-1.41252 3.7975926,-4.006 v -2.1072 c 0,-2.59348 -1.2504269,-4.005998 -3.7975926,-4.005998 z m 0,2.315608 c 0.810462,0 1.250427,0.37049 1.250427,1.5283 v 2.43138 c 0,1.1578 -0.439965,1.5283 -1.250427,1.5283 h -1.204115 v -5.48798 z"
           style="fill:#cccccc;fill-opacity:1;stroke-width:3.63482475"
           id="path4570"
           inkscape:connector-curvature="0" />
        <path
           d="m -6.9917495,116.05671 h 2.5471659 V 99.847472 h -2.5471659 z"
           style="fill:#cccccc;fill-opacity:1;stroke-width:3.63482475"
           id="path4572"
           inkscape:connector-curvature="0" />
        <path
           d="m 2.8369089,116.05671 h 2.616634 V 99.847472 H 3.1842497 v 9.702388 H 3.1379376 L 0.56761562,99.847472 H -2.6279198 v 16.209238 h 2.29244933 v -11.74012 h 0.0463121 z"
           style="fill:#cccccc;fill-opacity:1;stroke-width:3.63482475"
           id="path4574"
           inkscape:connector-curvature="0" />
        <path
           d="M 7.2998765,116.05671 H 9.8470424 V 99.847472 H 7.2998765 Z"
           style="fill:#cccccc;fill-opacity:1;stroke-width:3.63482475"
           id="path4576"
           inkscape:connector-curvature="0" />
        <path
           d="m 14.025624,103.5756 c 0,-1.15781 0.509433,-1.59777 1.319895,-1.59777 0.810462,0 1.319895,0.43996 1.319895,1.59777 v 8.75298 c 0,1.15781 -0.509433,1.59777 -1.319895,1.59777 -0.810462,0 -1.319895,-0.43996 -1.319895,-1.59777 z m -2.547166,8.59089 c 0,2.59348 1.366207,4.07547 3.867061,4.07547 2.500854,0 3.867061,-1.48199 3.867061,-4.07547 v -8.4288 c 0,-2.59348 -1.366207,-4.075467 -3.867061,-4.075467 -2.500854,0 -3.867061,1.481987 -3.867061,4.075467 z"
           style="fill:#cccccc;fill-opacity:1;stroke-width:3.63482475"
           id="path4578"
           inkscape:connector-curvature="0" />
        <path
           d="m 26.30955,116.05671 h 2.616634 V 99.847472 h -2.269293 v 9.702388 h -0.04631 l -2.570322,-9.702388 h -3.195536 v 16.209238 h 2.29245 v -11.74012 h 0.04631 z"
           style="fill:#cccccc;fill-opacity:1;stroke-width:3.63482475"
           id="path4580"
           inkscape:connector-curvature="0" />
        <path
           d="m 30.448333,103.73769 c 0,1.85248 0.671525,3.19553 2.801882,5.07117 1.667236,1.45884 2.176669,2.33877 2.176669,3.51972 0,1.15781 -0.509433,1.57462 -1.319895,1.57462 -0.810462,0 -1.319895,-0.41681 -1.319895,-1.57462 v -1.1578 h -2.408229 v 0.99571 c 0,2.59348 1.296739,4.07547 3.797592,4.07547 2.500854,0 3.797593,-1.48199 3.797593,-4.07547 0,-1.85248 -0.671525,-3.19553 -2.801882,-5.07117 -1.667236,-1.45883 -2.176669,-2.33876 -2.176669,-3.51972 0,-1.15781 0.463121,-1.59777 1.273583,-1.59777 0.810461,0 1.273583,0.43996 1.273583,1.59777 v 0.67152 h 2.408229 v -0.50943 c 0,-2.59348 -1.273583,-4.075467 -3.751281,-4.075467 -2.477697,0 -3.75128,1.481987 -3.75128,4.075467 z"
           style="fill:#cccccc;fill-opacity:1;stroke-width:3.63482475"
           id="path4582"
           inkscape:connector-curvature="0" />
        <path
           d="m 45.322476,103.5756 c 0,-1.15781 0.509433,-1.59777 1.319895,-1.59777 0.810462,0 1.319895,0.43996 1.319895,1.59777 v 8.75298 c 0,1.15781 -0.509433,1.59777 -1.319895,1.59777 -0.810462,0 -1.319895,-0.43996 -1.319895,-1.59777 z m -2.547166,8.59089 c 0,2.59348 1.366207,4.07547 3.867061,4.07547 2.500854,0 3.867061,-1.48199 3.867061,-4.07547 v -8.4288 c 0,-2.59348 -1.366207,-4.075467 -3.867061,-4.075467 -2.500854,0 -3.867061,1.481987 -3.867061,4.075467 z"
           style="fill:#cccccc;fill-opacity:1;stroke-width:3.63482475"
           id="path4584"
           inkscape:connector-curvature="0" />
        <path
           d="m 57.606402,116.05671 h 2.616634 V 99.847472 h -2.269293 v 9.702388 h -0.04631 l -2.570322,-9.702388 h -3.195536 v 16.209238 h 2.29245 v -11.74012 h 0.04631 z"
           style="fill:#cccccc;fill-opacity:1;stroke-width:3.63482475"
           id="path4586"
           inkscape:connector-curvature="0" />
        <path
           d="m 65.318091,103.73769 c 0,1.85248 0.671526,3.19553 2.801883,5.07117 1.667236,1.45884 2.176669,2.33877 2.176669,3.51972 0,1.15781 -0.509433,1.57462 -1.319895,1.57462 -0.810462,0 -1.319895,-0.41681 -1.319895,-1.57462 v -1.1578 h -2.40823 v 0.99571 c 0,2.59348 1.296739,4.07547 3.797593,4.07547 2.500854,0 3.797593,-1.48199 3.797593,-4.07547 0,-1.85248 -0.671526,-3.19553 -2.801883,-5.07117 -1.667236,-1.45883 -2.176669,-2.33876 -2.176669,-3.51972 0,-1.15781 0.463121,-1.59777 1.273583,-1.59777 0.810462,0 1.273583,0.43996 1.273583,1.59777 v 0.67152 h 2.40823 v -0.50943 c 0,-2.59348 -1.273583,-4.075467 -3.751281,-4.075467 -2.477698,0 -3.751281,1.481987 -3.751281,4.075467 z"
           style="fill:#cccccc;fill-opacity:1;stroke-width:3.63482475"
           id="path4588"
           inkscape:connector-curvature="0" />
        <path
           d="m 76.619328,103.5756 c 0,-1.15781 0.509433,-1.59777 1.319895,-1.59777 0.810462,0 1.319895,0.43996 1.319895,1.59777 v 8.75298 c 0,1.15781 -0.509433,1.59777 -1.319895,1.59777 -0.810462,0 -1.319895,-0.43996 -1.319895,-1.59777 z m -2.547166,8.59089 c 0,2.59348 1.366207,4.07547 3.867061,4.07547 2.500854,0 3.867061,-1.48199 3.867061,-4.07547 v -8.4288 c 0,-2.59348 -1.366207,-4.075467 -3.867061,-4.075467 -2.500854,0 -3.867061,1.481987 -3.867061,4.075467 z"
           style="fill:#cccccc;fill-opacity:1;stroke-width:3.63482475"
           id="path4590"
           inkscape:connector-curvature="0" />
        <path
           d="m 86.008755,102.16308 h 4.191246 v -2.315608 h -6.738412 v 16.209238 h 2.547166 v -6.6921 h 3.28816 V 107.049 h -3.28816 z"
           style="fill:#cccccc;fill-opacity:1;stroke-width:3.63482475"
           id="path4592"
           inkscape:connector-curvature="0" />
        <path
           d="m 90.68048,102.16308 h 2.662946 v 13.89363 h 2.547166 v -13.89363 h 2.662946 V 99.847472 H 90.68048 Z"
           style="fill:#cccccc;fill-opacity:1;stroke-width:3.63482475"
           id="path4594"
           inkscape:connector-curvature="0" />
        <path
           d="m 106.22906,116.05671 h 3.38078 l 1.80617,-16.209238 h -2.22298 l -1.29674,12.874768 h -0.0463 l -1.25043,-12.874768 h -2.45454 l -1.20411,12.782138 h -0.0463 l -1.34305,-12.782138 h -2.477695 l 1.806175,16.209238 h 3.49656 l 0.90309,-8.63721 h 0.0463 z"
           style="fill:#cccccc;fill-opacity:1;stroke-width:3.63482475"
           id="path4596"
           inkscape:connector-curvature="0" />
        <path
           d="m 117.96628,99.847472 h -3.72812 l -2.59348,16.209238 h 2.33876 l 0.43996,-2.94082 h 3.12607 l 0.43997,2.94082 h 2.57032 z m -2.01458,2.871348 h 0.0463 l 1.20411,8.19725 h -2.45454 z"
           style="fill:#cccccc;fill-opacity:1;stroke-width:3.63482475"
           id="path4598"
           inkscape:connector-curvature="0" />
        <path
           d="m 129.64271,116.05671 c -0.25472,-0.60206 -0.27787,-1.18096 -0.27787,-1.96827 v -2.50085 c 0,-1.69039 -0.41681,-2.89451 -1.6904,-3.42709 v -0.0463 c 1.13465,-0.53259 1.66724,-1.59776 1.66724,-3.265 v -1.27358 c 0,-2.50086 -1.13465,-3.728128 -3.77444,-3.728128 h -3.8439 v 16.209238 h 2.54716 v -6.59948 h 0.87993 c 1.15781,0 1.66724,0.55575 1.66724,2.06089 v 2.54717 c 0,1.31989 0.0926,1.57461 0.23156,1.99142 z m -4.14493,-13.89363 c 0.90308,0 1.29673,0.50943 1.29673,1.66723 v 1.59777 c 0,1.29674 -0.5789,1.71355 -1.5283,1.71355 h -0.99571 v -4.97855 z"
           style="fill:#cccccc;fill-opacity:1;stroke-width:3.63482475"
           id="path4600"
           inkscape:connector-curvature="0" />
        <path
           d="m 133.5872,102.16308 h 4.39965 v -2.315608 h -6.94682 v 16.209238 h 6.94682 v -2.31561 h -4.39965 v -4.74699 h 3.49656 v -2.3156 h -3.49656 z"
           style="fill:#cccccc;fill-opacity:1;stroke-width:3.63482475"
           id="path4602"
           inkscape:connector-curvature="0" />
        <path
           d="m 145.66272,102.16308 h 4.39965 v -2.315608 h -6.94682 v 16.209238 h 6.94682 v -2.31561 h -4.39965 v -4.74699 h 3.49656 v -2.3156 h -3.49656 z"
           style="fill:#cccccc;fill-opacity:1;stroke-width:3.63482475"
           id="path4604"
           inkscape:connector-curvature="0" />
        <path
           d="m 157.05985,116.05671 h 2.61663 V 99.847472 h -2.26929 v 9.702388 h -0.0463 l -2.57033,-9.702388 h -3.19553 v 16.209238 h 2.29245 v -11.74012 h 0.0463 z"
           style="fill:#cccccc;fill-opacity:1;stroke-width:3.63482475"
           id="path4606"
           inkscape:connector-curvature="0" />
        <path
           d="m 165.34356,109.34145 h 1.1578 v 2.98713 c 0,1.15781 -0.50943,1.57462 -1.3199,1.57462 -0.81046,0 -1.31989,-0.41681 -1.31989,-1.57462 v -8.75298 c 0,-1.15781 0.50943,-1.59777 1.31989,-1.59777 0.81047,0 1.3199,0.43996 1.3199,1.59777 v 1.7367 h 2.40823 v -1.57461 c 0,-2.59348 -1.29674,-4.075467 -3.79759,-4.075467 -2.50086,0 -3.7976,1.481987 -3.7976,4.075467 v 8.4288 c 0,2.59348 1.29674,4.07547 3.7976,4.07547 2.50085,0 3.79759,-1.48199 3.79759,-4.07547 v -5.14064 h -3.56603 z"
           style="fill:#cccccc;fill-opacity:1;stroke-width:3.63482475"
           id="path4608"
           inkscape:connector-curvature="0" />
        <path
           d="m 170.56814,116.05671 h 2.54717 V 99.847472 h -2.54717 z"
           style="fill:#cccccc;fill-opacity:1;stroke-width:3.63482475"
           id="path4610"
           inkscape:connector-curvature="0" />
        <path
           d="m 180.39681,116.05671 h 2.61663 V 99.847472 h -2.26929 v 9.702388 h -0.0463 l -2.57033,-9.702388 h -3.19553 v 16.209238 h 2.29245 v -11.74012 h 0.0463 z"
           style="fill:#cccccc;fill-opacity:1;stroke-width:3.63482475"
           id="path4612"
           inkscape:connector-curvature="0" />
        <path
           d="m 187.40693,102.16308 h 4.39965 v -2.315608 h -6.94681 v 16.209238 h 6.94681 v -2.31561 h -4.39965 v -4.74699 h 3.49657 v -2.3156 h -3.49657 z"
           style="fill:#cccccc;fill-opacity:1;stroke-width:3.63482475"
           id="path4614"
           inkscape:connector-curvature="0" />
        <path
           d="m 195.90954,102.16308 h 4.39965 v -2.315608 h -6.94681 v 16.209238 h 6.94681 v -2.31561 h -4.39965 v -4.74699 h 3.49657 v -2.3156 h -3.49657 z"
           style="fill:#cccccc;fill-opacity:1;stroke-width:3.63482475"
           id="path4616"
           inkscape:connector-curvature="0" />
        <path
           d="m 209.78437,116.05671 c -0.25472,-0.60206 -0.27787,-1.18096 -0.27787,-1.96827 v -2.50085 c 0,-1.69039 -0.41681,-2.89451 -1.69039,-3.42709 v -0.0463 c 1.13464,-0.53259 1.66723,-1.59776 1.66723,-3.265 v -1.27358 c 0,-2.50086 -1.13464,-3.728128 -3.77443,-3.728128 H 201.865 v 16.209238 h 2.54717 v -6.59948 h 0.87993 c 1.1578,0 1.66723,0.55575 1.66723,2.06089 v 2.54717 c 0,1.31989 0.0926,1.57461 0.23156,1.99142 z m -4.14493,-13.89363 c 0.90308,0 1.29674,0.50943 1.29674,1.66723 v 1.59777 c 0,1.29674 -0.5789,1.71355 -1.5283,1.71355 h -0.99571 v -4.97855 z"
           style="fill:#cccccc;fill-opacity:1;stroke-width:3.63482475"
           id="path4618"
           inkscape:connector-curvature="0" />
        <path
           d="m 211.18168,116.05671 h 2.54717 V 99.847472 h -2.54717 z"
           style="fill:#cccccc;fill-opacity:1;stroke-width:3.63482475"
           id="path4620"
           inkscape:connector-curvature="0" />
        <path
           d="m 221.01035,116.05671 h 2.61663 V 99.847472 h -2.26929 v 9.702388 h -0.0463 l -2.57033,-9.702388 h -3.19553 v 16.209238 h 2.29245 v -11.74012 h 0.0463 z"
           style="fill:#cccccc;fill-opacity:1;stroke-width:3.63482475"
           id="path4622"
           inkscape:connector-curvature="0" />
        <path
           d="m 229.29406,109.34145 h 1.1578 v 2.98713 c 0,1.15781 -0.50943,1.57462 -1.3199,1.57462 -0.81046,0 -1.31989,-0.41681 -1.31989,-1.57462 v -8.75298 c 0,-1.15781 0.50943,-1.59777 1.31989,-1.59777 0.81047,0 1.3199,0.43996 1.3199,1.59777 v 1.7367 h 2.40823 v -1.57461 c 0,-2.59348 -1.29674,-4.075467 -3.79759,-4.075467 -2.50086,0 -3.7976,1.481987 -3.7976,4.075467 v 8.4288 c 0,2.59348 1.29674,4.07547 3.7976,4.07547 2.50085,0 3.79759,-1.48199 3.79759,-4.07547 v -5.14064 h -3.56603 z"
           style="fill:#cccccc;fill-opacity:1;stroke-width:3.63482475"
           id="path4624"
           inkscape:connector-curvature="0" />
      </g>
    </g>
    <g
       id="g4719"
       transform="matrix(1.3002885,0,0,1.3002885,-1.5014427e-7,-89.1857)"
       style="stroke-width:0.76906008">
      <path
         sodipodi:nodetypes="ccccc"
         inkscape:connector-curvature="0"
         id="path4688"
         d="M 5.0397576e-7,281.8203 15.120873,296.99999 27.139417,297 4.9999998e-7,269.75318 Z"
         style="fill:#f00080;fill-opacity:1;stroke:none;stroke-width:0.20348047px;stroke-linecap:butt;stroke-linejoin:miter;stroke-opacity:1" />
      <path
         sodipodi:nodetypes="cccc"
         inkscape:connector-curvature="0"
         id="path4694"
         d="M 4.9999998e-7,297 V 285.62365 L 11.374903,297.00001 Z"
         style="fill:#f00080;fill-opacity:1;stroke:none;stroke-width:0.20348047px;stroke-linecap:butt;stroke-linejoin:miter;stroke-opacity:1" />
    </g>
    <g
       id="text5446-4-2-9"
       style="font-style:normal;font-variant:normal;font-weight:normal;font-stretch:normal;font-size:35.36649704px;line-height:22.10406113px;font-family:'Bebas Neue';-inkscape-font-specification:'Bebas Neue';letter-spacing:0px;word-spacing:0px;fill:#cccccc;fill-opacity:1;stroke:none;stroke-width:4.06019306"
       aria-label="Soapbox"
       transform="matrix(0.21776364,0,0,0.21776364,15.918293,229.3213)">
      <g
         aria-label="codesoapbox.dev"
         style="font-style:normal;font-variant:normal;font-weight:normal;font-stretch:normal;font-size:23.15605354px;line-height:14.47253227px;font-family:'Bebas Neue';-inkscape-font-specification:'Bebas Neue';letter-spacing:0px;word-spacing:0px;fill:#f00080;fill-opacity:1;stroke:none;stroke-width:4.06019306"
         id="text5446-4-5-4">
        <path
           d="m -41.314448,106.41221 q -0.09262,0.12736 -0.185249,0.19683 -0.09262,0.0695 -0.254716,0.0695 -0.173671,0 -0.382075,-0.13894 -0.208405,-0.15051 -0.521011,-0.32418 -0.301029,-0.17367 -0.752572,-0.31261 -0.439965,-0.15051 -1.088335,-0.15051 -0.868352,0 -1.528299,0.3126 -0.659948,0.30103 -1.111491,0.87993 -0.439965,0.5789 -0.671525,1.40094 -0.219983,0.82204 -0.219983,1.84091 0,1.06518 0.243139,1.8988 0.243138,0.82204 0.683103,1.38936 0.451543,0.55574 1.076757,0.85677 0.636791,0.28945 1.424097,0.28945 0.752572,0 1.238849,-0.17367 0.486277,-0.18524 0.798884,-0.40523 0.324185,-0.21998 0.532589,-0.39365 0.219983,-0.18525 0.428387,-0.18525 0.254717,0 0.393653,0.19683 l 0.578901,0.75257 q -0.382075,0.4747 -0.868352,0.81046 -0.486277,0.33576 -1.0536,0.56732 -0.555745,0.21999 -1.169381,0.32419 -0.613635,0.1042 -1.250427,0.1042 -1.099912,0 -2.04931,-0.40523 -0.937821,-0.40523 -1.632502,-1.16938 -0.694682,-0.77573 -1.088335,-1.8988 -0.393653,-1.12306 -0.393653,-2.55874 0,-1.30832 0.358919,-2.41981 0.370497,-1.11149 1.065179,-1.91037 0.706259,-0.81046 1.725126,-1.26201 1.030444,-0.45154 2.361917,-0.45154 1.238849,0 2.176669,0.40523 0.949398,0.39365 1.678814,1.12307 z"
           style="font-style:normal;font-variant:normal;font-weight:normal;font-stretch:normal;font-family:Lato;-inkscape-font-specification:Lato;fill:#f00080;fill-opacity:1;stroke-width:4.06019306"
           id="path4533"
           inkscape:connector-curvature="0" />
        <path
           d="m -33.723966,104.14292 q 1.285161,0 2.315605,0.42839 1.030445,0.42838 1.75986,1.21569 0.729416,0.78731 1.111491,1.91037 0.393653,1.11149 0.393653,2.48928 0,1.38936 -0.393653,2.50085 -0.382075,1.11149 -1.111491,1.8988 -0.729415,0.78731 -1.75986,1.21569 -1.030444,0.41681 -2.315605,0.41681 -1.296739,0 -2.338762,-0.41681 -1.030444,-0.42838 -1.75986,-1.21569 -0.729415,-0.78731 -1.123068,-1.8988 -0.382075,-1.11149 -0.382075,-2.50085 0,-1.37779 0.382075,-2.48928 0.393653,-1.12306 1.123068,-1.91037 0.729416,-0.78731 1.75986,-1.21569 1.042023,-0.42839 2.338762,-0.42839 z m 0,10.46654 q 1.736704,0 2.593478,-1.15781 0.856774,-1.16938 0.856774,-3.25342 0,-2.09563 -0.856774,-3.26501 -0.856774,-1.16938 -2.593478,-1.16938 -0.87993,0 -1.539878,0.30103 -0.648369,0.30103 -1.088334,0.86835 -0.428387,0.56733 -0.64837,1.40095 -0.208404,0.82204 -0.208404,1.86406 0,2.08404 0.856774,3.25342 0.868352,1.15781 2.628212,1.15781 z"
           style="font-style:normal;font-variant:normal;font-weight:normal;font-stretch:normal;font-family:Lato;-inkscape-font-specification:Lato;fill:#f00080;fill-opacity:1;stroke-width:4.06019306"
           id="path4535"
           inkscape:connector-curvature="0" />
        <path
           d="m -17.910552,107.11847 q -0.578901,-0.77573 -1.250427,-1.07675 -0.671525,-0.31261 -1.505143,-0.31261 -1.632502,0 -2.512432,1.16938 -0.87993,1.16938 -0.87993,3.33447 0,1.14623 0.196826,1.96827 0.196827,0.81046 0.578902,1.34305 0.382075,0.52101 0.93782,0.76415 0.555745,0.24314 1.262005,0.24314 1.018866,0 1.771438,-0.46313 0.76415,-0.46312 1.400941,-1.30831 z m 2.060889,-8.116194 v 17.054434 h -1.227271 q -0.439965,0 -0.555745,-0.42839 l -0.185249,-1.42409 q -0.752571,0.90308 -1.713548,1.45883 -0.960976,0.55574 -2.222981,0.55574 -1.007288,0 -1.829328,-0.38207 -0.82204,-0.39366 -1.400941,-1.14623 -0.578901,-0.75257 -0.891508,-1.87564 -0.312607,-1.12307 -0.312607,-2.5819 0,-1.29674 0.347341,-2.40823 0.347341,-1.12307 0.99571,-1.94511 0.64837,-0.82204 1.58619,-1.28516 0.949398,-0.4747 2.130357,-0.4747 1.076756,0 1.840906,0.3705 0.775728,0.35892 1.377785,1.00729 v -6.495274 z"
           style="font-style:normal;font-variant:normal;font-weight:normal;font-stretch:normal;font-family:Lato;-inkscape-font-specification:Lato;fill:#f00080;fill-opacity:1;stroke-width:4.06019306"
           id="path4537"
           inkscape:connector-curvature="0" />
        <path
           d="m -4.7220944,108.91307 q 0,-0.71784 -0.2084044,-1.30832 -0.1968265,-0.60206 -0.5904794,-1.03044 -0.3820749,-0.43997 -0.9378202,-0.67153 -0.5557453,-0.24314 -1.2620049,-0.24314 -1.4819874,0 -2.3503397,0.86835 -0.856774,0.85678 -1.065178,2.38508 z m 1.6672359,5.49956 q -0.3820749,0.46312 -0.9146641,0.81046 -0.5325893,0.33576 -1.1462247,0.55575 -0.6020574,0.21998 -1.2504269,0.32418 -0.6483695,0.11578 -1.2851609,0.11578 -1.2156928,0 -2.2461372,-0.40523 -1.0188667,-0.41681 -1.7714377,-1.20411 -0.740994,-0.79889 -1.157803,-1.96827 -0.416809,-1.16938 -0.416809,-2.6861 0,-1.22727 0.370497,-2.29245 0.382075,-1.06518 1.088334,-1.84091 0.70626,-0.7873 1.725126,-1.22727 1.0188666,-0.45154 2.2924496,-0.45154 1.0536004,0 1.9451085,0.35892 0.9030861,0.34734 1.5514556,1.01886 0.6599475,0.65995 1.0304444,1.64408 0.3704968,0.97256 0.3704968,2.22299 0,0.48627 -0.1042022,0.64837 -0.1042023,0.16209 -0.3936529,0.16209 h -7.8383238 q 0.03473,1.11149 0.301028,1.93353 0.277873,0.82204 0.76415,1.37778 0.4862772,0.54417 1.1578028,0.82204 0.6715255,0.2663 1.5051435,0.2663 0.7757278,0 1.331473,-0.17367 0.5673234,-0.18525 0.9725543,-0.39366 0.4052309,-0.2084 0.6715255,-0.38207 0.2778727,-0.18525 0.4746991,-0.18525 0.2547166,0 0.393653,0.19683 z"
           style="font-style:normal;font-variant:normal;font-weight:normal;font-stretch:normal;font-family:Lato;-inkscape-font-specification:Lato;fill:#f00080;fill-opacity:1;stroke-width:4.06019306"
           id="path4539"
           inkscape:connector-curvature="0" />
        <path
           d="m 6.47024,106.2617 q -0.1389363,0.25472 -0.428387,0.25472 -0.1736704,0 -0.3936529,-0.12736 -0.2199825,-0.12736 -0.5441673,-0.27788 -0.3126067,-0.16209 -0.7525717,-0.28945 -0.439965,-0.13893 -1.0420224,-0.13893 -0.5210112,0 -0.9378202,0.13893 -0.4168089,0.12736 -0.7178376,0.35892 -0.2894507,0.23156 -0.4515431,0.54417 -0.1505143,0.30103 -0.1505143,0.65995 0,0.45154 0.2547166,0.75257 0.2662946,0.30103 0.6946816,0.52101 0.4283869,0.21998 0.9725542,0.39365 0.5441673,0.1621 1.1114906,0.35892 0.5789013,0.18525 1.1230686,0.41681 0.5441672,0.23156 0.9725542,0.5789 0.428387,0.34734 0.6831036,0.85678 0.2662946,0.49785 0.2662946,1.20411 0,0.81046 -0.2894507,1.50514 -0.2894506,0.68311 -0.8567739,1.19254 -0.5673233,0.49786 -1.3893632,0.78731 -0.8220399,0.28945 -1.8987964,0.28945 -1.2272709,0 -2.22298117,-0.39366 -0.99571031,-0.40523 -1.69039193,-1.03044 l 0.48627714,-0.78731 q 0.0926242,-0.15051 0.21998251,-0.23156 0.12735829,-0.081 0.32418475,-0.081 0.20840448,0 0.43996502,0.16209 0.23156053,0.16209 0.55574528,0.35892 0.3357628,0.19683 0.8104619,0.35892 0.4746991,0.16209 1.1809587,0.16209 0.6020574,0 1.0536004,-0.15051 0.4515431,-0.1621 0.7525718,-0.42839 0.3010287,-0.2663 0.439965,-0.61364 0.1505143,-0.34734 0.1505143,-0.74099 0,-0.48628 -0.2662946,-0.79888 -0.2547166,-0.32419 -0.6831035,-0.54417 -0.428387,-0.23156 -0.9841323,-0.39365 -0.5441673,-0.17367 -1.1230686,-0.35892 -0.5673233,-0.18525 -1.1230686,-0.41681 -0.54416727,-0.24314 -0.97255427,-0.60206 -0.42838699,-0.35892 -0.6946816,-0.87993 -0.25471659,-0.53259 -0.25471659,-1.28516 0,-0.67153 0.27787264,-1.28516 0.27787264,-0.62521 0.81046188,-1.08834 0.53258923,-0.47469 1.30831704,-0.75257 0.7757278,-0.27787 1.7714381,-0.27787 1.1578027,0 2.0724668,0.3705 0.9262421,0.35892 1.5977677,0.99571 z"
           style="font-style:normal;font-variant:normal;font-weight:normal;font-stretch:normal;font-family:Lato;-inkscape-font-specification:Lato;fill:#f00080;fill-opacity:1;stroke-width:4.06019306"
           id="path4541"
           inkscape:connector-curvature="0" />
        <path
           d="m 14.623339,104.14292 q 1.285161,0 2.315606,0.42839 1.030444,0.42838 1.75986,1.21569 0.729415,0.78731 1.11149,1.91037 0.393653,1.11149 0.393653,2.48928 0,1.38936 -0.393653,2.50085 -0.382075,1.11149 -1.11149,1.8988 -0.729416,0.78731 -1.75986,1.21569 -1.030445,0.41681 -2.315606,0.41681 -1.296739,0 -2.338761,-0.41681 -1.030445,-0.42838 -1.75986,-1.21569 -0.729416,-0.78731 -1.1230689,-1.8988 -0.3820749,-1.11149 -0.3820749,-2.50085 0,-1.37779 0.3820749,-2.48928 0.3936529,-1.12306 1.1230689,-1.91037 0.729415,-0.78731 1.75986,-1.21569 1.042022,-0.42839 2.338761,-0.42839 z m 0,10.46654 q 1.736704,0 2.593478,-1.15781 0.856774,-1.16938 0.856774,-3.25342 0,-2.09563 -0.856774,-3.26501 -0.856774,-1.16938 -2.593478,-1.16938 -0.87993,0 -1.539877,0.30103 -0.64837,0.30103 -1.088335,0.86835 -0.428387,0.56733 -0.648369,1.40095 -0.208405,0.82204 -0.208405,1.86406 0,2.08404 0.856774,3.25342 0.868352,1.15781 2.628212,1.15781 z"
           style="font-style:normal;font-variant:normal;font-weight:normal;font-stretch:normal;font-family:Lato;-inkscape-font-specification:Lato;fill:#f00080;fill-opacity:1;stroke-width:4.06019306"
           id="path4543"
           inkscape:connector-curvature="0" />
        <path
           d="m 29.151596,110.77713 q -1.424097,0.0463 -2.431385,0.23156 -0.995711,0.17367 -1.632502,0.46312 -0.625213,0.28945 -0.914664,0.6831 -0.277873,0.39366 -0.277873,0.87993 0,0.46313 0.150515,0.79889 0.150514,0.33576 0.40523,0.55574 0.266295,0.20841 0.613636,0.31261 0.358919,0.0926 0.76415,0.0926 0.544167,0 0.99571,-0.1042 0.451543,-0.11578 0.845196,-0.32418 0.405231,-0.20841 0.76415,-0.49786 0.370497,-0.28945 0.717837,-0.65995 z m -6.657365,-4.7933 q 0.972554,-0.93782 2.095623,-1.40095 1.123068,-0.46312 2.489276,-0.46312 0.984132,0 1.748282,0.32419 0.764149,0.32418 1.285161,0.90308 0.521011,0.57891 0.787305,1.40095 0.266295,0.82204 0.266295,1.80617 v 7.50256 h -0.914664 q -0.301029,0 -0.463121,-0.0926 -0.162093,-0.10421 -0.254717,-0.39366 l -0.23156,-1.11149 q -0.463121,0.42839 -0.903086,0.76415 -0.439965,0.32419 -0.926243,0.55575 -0.486277,0.21998 -1.042022,0.33576 -0.544167,0.12736 -1.215693,0.12736 -0.683103,0 -1.285161,-0.18525 -0.602057,-0.19683 -1.0536,-0.5789 -0.439965,-0.38208 -0.70626,-0.96098 -0.254716,-0.59048 -0.254716,-1.38936 0,-0.69468 0.382074,-1.33147 0.382075,-0.64837 1.238849,-1.14623 0.856774,-0.49785 2.23456,-0.81046 1.377785,-0.32419 3.380783,-0.3705 v -0.91466 q 0,-1.36621 -0.590479,-2.06089 -0.590479,-0.70626 -1.725126,-0.70626 -0.76415,0 -1.285161,0.19683 -0.509433,0.18524 -0.891508,0.42838 -0.370497,0.23156 -0.64837,0.42839 -0.266294,0.18525 -0.532589,0.18525 -0.208404,0 -0.358919,-0.1042 -0.150514,-0.11578 -0.254716,-0.27788 z"
           style="font-style:normal;font-variant:normal;font-weight:normal;font-stretch:normal;font-family:Lato;-inkscape-font-specification:Lato;fill:#f00080;fill-opacity:1;stroke-width:4.06019306"
           id="path4545"
           inkscape:connector-curvature="0" />
        <path
           d="m 36.355298,113.23167 q 0.567323,0.76415 1.238849,1.07676 0.671526,0.3126 1.505144,0.3126 1.644079,0 2.524009,-1.16938 0.87993,-1.16938 0.87993,-3.33447 0,-1.14622 -0.208404,-1.96826 -0.196827,-0.82204 -0.578901,-1.34305 -0.382075,-0.53259 -0.937821,-0.77573 -0.555745,-0.24314 -1.262005,-0.24314 -1.007288,0 -1.771438,0.46312 -0.752571,0.46312 -1.389363,1.30832 z m -0.104202,-7.08575 q 0.740994,-0.91467 1.713548,-1.47041 0.972554,-0.55575 2.222981,-0.55575 1.018866,0 1.840906,0.39366 0.82204,0.38207 1.400942,1.14622 0.578901,0.75257 0.891508,1.87564 0.312606,1.12307 0.312606,2.5819 0,1.29674 -0.347341,2.41981 -0.34734,1.11149 -1.007288,1.93353 -0.648369,0.81046 -1.597768,1.28516 -0.93782,0.46312 -2.118778,0.46312 -1.076757,0 -1.852485,-0.35892 -0.764149,-0.37049 -1.354629,-1.01886 v 5.18695 h -2.072467 v -15.6998 h 1.238849 q 0.439965,0 0.544167,0.42839 z"
           style="font-style:normal;font-variant:normal;font-weight:normal;font-stretch:normal;font-family:Lato;-inkscape-font-specification:Lato;fill:#f00080;fill-opacity:1;stroke-width:4.06019306"
           id="path4547"
           inkscape:connector-curvature="0" />
        <path
           d="m 49.335347,113.23167 q 0.567324,0.76415 1.238849,1.07676 0.683104,0.3126 1.493566,0.3126 1.655657,0 2.535587,-1.16938 0.879931,-1.16938 0.879931,-3.48498 0,-2.15352 -0.787306,-3.1608 -0.775728,-1.01887 -2.222981,-1.01887 -1.007289,0 -1.759861,0.46312 -0.740993,0.46312 -1.377785,1.30832 z m 0,-7.21311 q 0.740994,-0.85677 1.667236,-1.36621 0.93782,-0.50943 2.153513,-0.50943 1.030445,0 1.852484,0.39365 0.833618,0.39366 1.41252,1.14623 0.578901,0.74099 0.87993,1.80617 0.312606,1.06518 0.312606,2.39665 0,1.4241 -0.34734,2.59348 -0.347341,1.16938 -1.007289,2.003 -0.648369,0.82204 -1.586189,1.28516 -0.937821,0.45154 -2.107201,0.45154 -1.157803,0 -1.956687,-0.42839 -0.787306,-0.43996 -1.377785,-1.23884 l -0.104202,1.06517 q -0.09262,0.43997 -0.532589,0.43997 H 47.26288 V 99.002276 h 2.072467 z"
           style="font-style:normal;font-variant:normal;font-weight:normal;font-stretch:normal;font-family:Lato;-inkscape-font-specification:Lato;fill:#f00080;fill-opacity:1;stroke-width:4.06019306"
           id="path4549"
           inkscape:connector-curvature="0" />
        <path
           d="m 65.186755,104.14292 q 1.285161,0 2.315605,0.42839 1.030444,0.42838 1.75986,1.21569 0.729416,0.78731 1.111491,1.91037 0.393653,1.11149 0.393653,2.48928 0,1.38936 -0.393653,2.50085 -0.382075,1.11149 -1.111491,1.8988 -0.729416,0.78731 -1.75986,1.21569 -1.030444,0.41681 -2.315605,0.41681 -1.296739,0 -2.338762,-0.41681 -1.030444,-0.42838 -1.75986,-1.21569 -0.729415,-0.78731 -1.123068,-1.8988 -0.382075,-1.11149 -0.382075,-2.50085 0,-1.37779 0.382075,-2.48928 0.393653,-1.12306 1.123068,-1.91037 0.729416,-0.78731 1.75986,-1.21569 1.042023,-0.42839 2.338762,-0.42839 z m 0,10.46654 q 1.736704,0 2.593478,-1.15781 0.856774,-1.16938 0.856774,-3.25342 0,-2.09563 -0.856774,-3.26501 -0.856774,-1.16938 -2.593478,-1.16938 -0.87993,0 -1.539878,0.30103 -0.648369,0.30103 -1.088334,0.86835 -0.428387,0.56733 -0.64837,1.40095 -0.208404,0.82204 -0.208404,1.86406 0,2.08404 0.856774,3.25342 0.868352,1.15781 2.628212,1.15781 z"
           style="font-style:normal;font-variant:normal;font-weight:normal;font-stretch:normal;font-family:Lato;-inkscape-font-specification:Lato;fill:#f00080;fill-opacity:1;stroke-width:4.06019306"
           id="path4551"
           inkscape:connector-curvature="0" />
        <path
           d="m 82.448869,116.05671 h -1.979843 q -0.254716,0 -0.405231,-0.12736 -0.138936,-0.13894 -0.23156,-0.30103 l -2.952397,-4.59647 q -0.04631,0.16209 -0.104202,0.32418 -0.04631,0.15051 -0.138937,0.27787 l -2.732414,3.99442 q -0.11578,0.16209 -0.254717,0.30103 -0.127358,0.12736 -0.358918,0.12736 h -1.840907 l 4.1102,-6.02057 -3.948107,-5.70797 h 1.979842 q 0.254717,0 0.370497,0.081 0.11578,0.0811 0.208405,0.23156 l 2.882928,4.39966 q 0.09263,-0.33577 0.289451,-0.64837 l 2.52401,-3.70497 q 0.104202,-0.1621 0.219982,-0.25472 0.127359,-0.1042 0.301029,-0.1042 h 1.898796 l -3.948107,5.60376 z"
           style="font-style:normal;font-variant:normal;font-weight:normal;font-stretch:normal;font-family:Lato;-inkscape-font-specification:Lato;fill:#f00080;fill-opacity:1;stroke-width:4.06019306"
           id="path4553"
           inkscape:connector-curvature="0" />
        <path
           d="m 84.001416,114.78313 q 0,-0.30103 0.104202,-0.56733 0.115781,-0.26629 0.301029,-0.46312 0.196827,-0.19682 0.463121,-0.3126 0.266295,-0.11579 0.567323,-0.11579 0.301029,0 0.567324,0.11579 0.266294,0.11578 0.463121,0.3126 0.196826,0.19683 0.312607,0.46312 0.11578,0.2663 0.11578,0.56733 0,0.3126 -0.11578,0.5789 -0.115781,0.25471 -0.312607,0.45154 -0.196827,0.19683 -0.463121,0.30103 -0.266295,0.11578 -0.567324,0.11578 -0.301028,0 -0.567323,-0.11578 -0.266294,-0.1042 -0.463121,-0.30103 -0.185248,-0.19683 -0.301029,-0.45154 -0.104202,-0.2663 -0.104202,-0.5789 z"
           style="font-style:normal;font-variant:normal;font-weight:normal;font-stretch:normal;font-family:Lato;-inkscape-font-specification:Lato;fill:#f00080;fill-opacity:1;stroke-width:4.06019306"
           id="path4555"
           inkscape:connector-curvature="0" />
        <path
           d="m 97.462682,107.11847 q -0.578901,-0.77573 -1.250427,-1.07675 -0.671525,-0.31261 -1.505143,-0.31261 -1.632502,0 -2.512432,1.16938 -0.87993,1.16938 -0.87993,3.33447 0,1.14623 0.196826,1.96827 0.196827,0.81046 0.578902,1.34305 0.382074,0.52101 0.93782,0.76415 0.555745,0.24314 1.262005,0.24314 1.018866,0 1.771438,-0.46313 0.76415,-0.46312 1.400941,-1.30831 z m 2.060889,-8.116194 V 116.05671 H 98.2963 q -0.439965,0 -0.555745,-0.42839 l -0.185249,-1.42409 q -0.752572,0.90308 -1.713548,1.45883 -0.960976,0.55574 -2.222981,0.55574 -1.007288,0 -1.829328,-0.38207 -0.82204,-0.39366 -1.400941,-1.14623 -0.578902,-0.75257 -0.891508,-1.87564 -0.312607,-1.12307 -0.312607,-2.5819 0,-1.29674 0.347341,-2.40823 0.34734,-1.12307 0.99571,-1.94511 0.648369,-0.82204 1.58619,-1.28516 0.949398,-0.4747 2.130357,-0.4747 1.076756,0 1.840906,0.3705 0.775728,0.35892 1.377785,1.00729 v -6.495274 z"
           style="font-style:normal;font-variant:normal;font-weight:normal;font-stretch:normal;font-family:Lato;-inkscape-font-specification:Lato;fill:#f00080;fill-opacity:1;stroke-width:4.06019306"
           id="path4557"
           inkscape:connector-curvature="0" />
        <path
           d="m 110.65113,108.91307 q 0,-0.71784 -0.20841,-1.30832 -0.19682,-0.60206 -0.59048,-1.03044 -0.38207,-0.43997 -0.93782,-0.67153 -0.55574,-0.24314 -1.262,-0.24314 -1.48199,0 -2.35034,0.86835 -0.85677,0.85678 -1.06518,2.38508 z m 1.66723,5.49956 q -0.38207,0.46312 -0.91466,0.81046 -0.53259,0.33576 -1.14622,0.55575 -0.60206,0.21998 -1.25043,0.32418 -0.64837,0.11578 -1.28516,0.11578 -1.2157,0 -2.24614,-0.40523 -1.01887,-0.41681 -1.77144,-1.20411 -0.74099,-0.79889 -1.1578,-1.96827 -0.41681,-1.16938 -0.41681,-2.6861 0,-1.22727 0.3705,-2.29245 0.38207,-1.06518 1.08833,-1.84091 0.70626,-0.7873 1.72513,-1.22727 1.01886,-0.45154 2.29245,-0.45154 1.0536,0 1.94511,0.35892 0.90308,0.34734 1.55145,1.01886 0.65995,0.65995 1.03045,1.64408 0.37049,0.97256 0.37049,2.22299 0,0.48627 -0.1042,0.64837 -0.1042,0.16209 -0.39365,0.16209 h -7.83833 q 0.0347,1.11149 0.30103,1.93353 0.27787,0.82204 0.76415,1.37778 0.48628,0.54417 1.1578,0.82204 0.67153,0.2663 1.50515,0.2663 0.77573,0 1.33147,-0.17367 0.56732,-0.18525 0.97255,-0.39366 0.40524,-0.2084 0.67153,-0.38207 0.27787,-0.18525 0.4747,-0.18525 0.25472,0 0.39365,0.19683 z"
           style="font-style:normal;font-variant:normal;font-weight:normal;font-stretch:normal;font-family:Lato;-inkscape-font-specification:Lato;fill:#f00080;fill-opacity:1;stroke-width:4.06019306"
           id="path4559"
           inkscape:connector-curvature="0" />
        <path
           d="m 124.7908,104.32817 -4.78172,11.72854 h -1.85249 l -4.78172,-11.72854 h 1.67881 q 0.25472,0 0.41681,0.12736 0.16209,0.12735 0.21998,0.30103 l 2.97556,7.54887 q 0.13893,0.42839 0.24314,0.83362 0.1042,0.40523 0.19682,0.81046 0.0926,-0.40523 0.19683,-0.81046 0.1042,-0.40523 0.25471,-0.83362 l 3.01029,-7.54887 q 0.0695,-0.18525 0.23156,-0.30103 0.16209,-0.12736 0.38208,-0.12736 z"
           style="font-style:normal;font-variant:normal;font-weight:normal;font-stretch:normal;font-family:Lato;-inkscape-font-specification:Lato;fill:#f00080;fill-opacity:1;stroke-width:4.06019306"
           id="path4561"
           inkscape:connector-curvature="0" />
      </g>
    </g>
    <path
       style="fill:#f00080;fill-opacity:1;stroke:none;stroke-width:0.26458332px;stroke-linecap:butt;stroke-linejoin:miter;stroke-opacity:1"
       d="M 116.42236,247.00002 66.625391,297.00007 H 82.364998 L 132.17127,247.00002 Z"
       id="path4688-0"
       inkscape:connector-curvature="0"
       sodipodi:nodetypes="ccccc" />
    <path
       sodipodi:nodetypes="ccccc"
       inkscape:connector-curvature="0"
       id="path4739"
       d="M 95.652558,247.00002 45.855599,297.00007 H 61.595207 L 111.40148,247.00002 Z"
       style="fill:#f00080;fill-opacity:1;stroke:none;stroke-width:0.26458332px;stroke-linecap:butt;stroke-linejoin:miter;stroke-opacity:1" />
  </g>
</svg>
